<?xml version="1.0" standalone="no"?>
<!DOCTYPE svg PUBLIC "-//W3C//DTD SVG 20010904//EN"
 "http://www.w3.org/TR/2001/REC-SVG-20010904/DTD/svg10.dtd">
<svg version="1.0" xmlns="http://www.w3.org/2000/svg"
 width="150.000000pt" height="150.000000pt" viewBox="0 0 150.000000 150.000000"
 preserveAspectRatio="xMidYMid meet">
<metadata>
Created by potrace 1.11, written by Peter Selinger 2001-2013
</metadata>
<g transform="translate(0.000000,150.000000) scale(0.100000,-0.100000)"
fill="#000000" stroke="none">
<path d="M973 1305 c-78 -34 -194 -136 -262 -230 -32 -45 -32 -45 -9 -46 41
-2 49 2 81 39 95 111 198 192 249 194 52 2 59 -2 80 -48 27 -62 20 -157 -21
-282 -31 -93 -31 -94 -12 -118 l19 -24 26 77 c40 126 47 161 48 247 1 87 -16
142 -54 183 -25 27 -93 31 -145 8z"/>
<path d="M505 1302 c-81 -28 -109 -118 -80 -252 10 -46 21 -59 46 -53 16 4 19
11 14 32 -25 114 -22 176 11 212 14 16 25 18 58 13 42 -6 122 -49 164 -88 l24
-21 20 25 20 24 -34 28 c-80 66 -185 100 -243 80z"/>
<path d="M831 1089 l-20 -21 39 -50 c51 -64 138 -204 190 -307 44 -86 62 -103
85 -80 12 12 7 29 -34 111 -48 96 -151 260 -209 331 l-30 38 -21 -22z"/>
<path d="M777 1004 c-1 -2 -38 -4 -82 -5 -221 -5 -438 -73 -508 -161 -26 -32
-29 -42 -23 -80 11 -73 68 -122 195 -168 88 -32 198 -60 238 -60 24 0 25 1 11
22 -11 16 -39 27 -119 44 -168 38 -269 99 -269 162 0 113 192 184 533 197 60
3 111 6 113 7 1 2 -4 11 -11 21 -11 15 -68 30 -78 21z"/>
<path d="M976 971 c29 -50 104 -50 104 0 0 15 -8 19 -32 20 -18 0 -46 3 -61 5
l-29 5 18 -30z"/>
<path d="M1170 940 c-5 -10 -10 -21 -10 -23 0 -2 29 -19 65 -36 37 -18 83 -49
105 -69 47 -46 45 -78 -9 -123 -33 -27 -208 -92 -307 -113 -26 -6 -54 -37 -54
-61 0 -2 24 3 53 11 28 8 64 16 79 19 94 17 270 100 300 140 58 77 11 168
-120 234 -79 40 -91 42 -102 21z"/>
<path d="M611 920 c-15 -10 -41 -55 -41 -70 0 -9 6 -24 13 -34 12 -16 17 -12
50 42 20 33 37 62 37 65 0 6 -49 4 -59 -3z"/>
<path d="M725 922 c-13 -2 -38 -30 -66 -76 l-46 -73 46 -86 45 -85 95 1 95 2
43 75 c24 41 43 82 43 90 0 8 -20 47 -44 85 l-43 70 -74 0 c-41 0 -83 -1 -94
-3z"/>
<path d="M481 901 c-19 -12 -2 -62 60 -179 39 -73 171 -283 196 -312 3 -3 13
6 24 19 19 23 19 23 -11 61 -41 52 -145 229 -194 330 -42 86 -51 95 -75 81z"/>
<path d="M970 683 c-47 -77 -165 -233 -234 -310 -95 -104 -192 -137 -242 -81
-19 20 -21 65 -11 203 2 25 -2 30 -24 33 -23 3 -26 -2 -37 -48 -24 -102 -11
-181 36 -233 30 -31 84 -49 127 -41 66 11 186 103 253 193 15 20 35 45 45 56
15 17 125 172 149 209 3 6 -1 26 -11 44 l-17 32 -34 -57z"/>
<path d="M482 683 c-14 -50 -7 -67 24 -61 25 4 34 47 17 81 -7 15 -17 27 -21
27 -4 0 -13 -21 -20 -47z"/>
<path d="M730 560 c0 -3 6 -15 14 -26 21 -30 91 -32 106 -4 7 12 10 23 8 25
-6 6 -128 11 -128 5z"/>
<path d="M1133 529 c-19 -7 -22 -14 -18 -41 13 -89 13 -132 1 -163 -29 -69
-86 -67 -195 6 -67 45 -75 48 -86 32 -17 -23 -12 -32 38 -69 65 -48 105 -65
161 -70 60 -6 113 17 133 56 16 30 15 169 -1 221 -10 33 -14 36 -33 28z"/>
</g>
</svg>
